subject_04
version=1
nRows=212
nColumns=3
inDegrees=yes
endheader
time	r_shoulder_elev	r_elbow_flex
82.9400	18.842916	20.313874
82.9500	18.842916	19.664861
82.9600	18.842916	19.362995
82.9700	18.842916	19.570687
82.9800	18.842916	20.269521
82.9900	18.842916	21.264840
83.0000	18.842916	22.258003
83.0100	18.842916	22.959642
83.0200	18.842916	23.199414
83.0300	18.842916	22.987946
83.0400	18.842916	22.505947
83.0500	18.842916	22.026013
83.0600	18.842916	21.801288
83.0700	18.842916	21.968684
83.0800	18.842916	22.506629
83.0900	18.842916	23.261697
83.1000	18.842916	24.027107
83.1100	18.842916	24.633880
83.1200	18.842916	25.012601
83.1300	18.842916	25.201173
83.1400	18.842916	25.302186
83.1500	18.842916	25.418049
83.1600	18.842916	25.600538
83.1700	18.842916	25.840077
83.1800	18.842916	26.095724
83.1900	18.842916	26.343098
83.2000	18.842916	26.607519
83.2100	18.842916	26.958977
83.2200	18.842916	27.469054
83.2300	18.842916	28.154250
83.2400	18.842916	28.941327
83.2500	18.842916	29.680952
83.2600	18.842916	30.210224
83.2700	18.842916	30.436127
83.2800	18.842916	30.396387
83.2900	18.842916	30.261517
83.3000	18.842916	30.269578
83.3100	18.842916	30.620027
83.3200	18.842916	31.376650
83.3300	18.842916	32.428807
83.3400	18.842916	33.533938
83.3500	18.842916	34.424764
83.3600	18.842916	34.931668
83.3700	18.842916	35.061409
83.3800	18.842916	34.993275
83.3900	18.842916	34.993637
83.4000	18.842916	35.289992
83.4100	18.842916	35.965660
83.4200	18.842916	36.926029
83.4300	18.842916	37.951587
83.4400	18.842916	38.809807
83.4500	18.842916	39.369193
83.4600	18.842916	39.658796
83.4700	18.842916	39.845129
83.4800	18.842916	40.140762
83.4900	18.842916	40.693131
83.5000	18.842916	41.510967
83.5100	18.842916	42.464915
83.5200	18.842916	43.359790
83.5300	18.842916	44.038941
83.5400	18.842916	44.465530
83.5500	18.842916	44.738992
83.5600	18.842916	45.039817
83.5700	18.842916	45.533524
83.5800	18.842916	46.285289
83.5900	18.842916	47.229712
83.6000	18.842916	48.209839
83.6100	18.842916	49.062458
83.6200	18.842916	49.702726
83.6300	18.842916	50.162990
83.6400	18.842916	50.566759
83.6500	18.842916	51.054658
83.6600	18.842916	51.705112
83.6700	18.842916	52.494424
83.6800	18.842916	53.317911
83.6900	18.842916	54.058751
83.7000	18.842916	54.663725
83.7100	18.842916	55.180576
83.7200	18.842916	55.733143
83.7300	18.842916	56.446204
83.7400	18.842916	57.362193
83.7500	18.842916	58.399316
83.7600	18.842916	59.380017
83.7700	18.842916	60.120342
83.7800	18.842916	60.535274
83.7900	18.842916	60.702243
83.8000	18.842916	60.843242
83.8100	18.842916	61.227135
83.8200	18.842916	62.036765
83.8300	18.842916	63.267488
83.8400	18.842916	64.711971
83.8500	18.842916	66.044980
83.8600	18.842916	66.971660
83.8700	18.842916	67.368967
83.8800	18.842916	67.350491
83.8900	18.842916	67.220564
83.9000	18.842916	67.337157
83.9100	18.842916	67.948011
83.9200	18.842916	69.077997
83.9300	18.842916	70.521091
83.9400	18.842916	71.939481
83.9500	18.842916	73.020828
83.9600	18.842916	73.617826
83.9700	18.842916	73.804961
83.9800	18.842916	73.829555
83.9900	18.842916	73.986054
84.0000	18.842916	74.478037
84.0100	18.842916	75.334562
84.0200	18.842916	76.416628
84.0300	18.842916	77.502702
84.0400	18.842916	78.404010
84.0500	18.842916	79.049485
84.0600	18.842916	79.501010
84.0700	18.842916	79.899070
84.0800	18.842916	80.375435
84.0900	18.842916	80.983723
84.1000	18.842916	81.684264
84.1100	18.842916	82.386100
84.1200	18.842916	83.015733
84.1300	18.842916	83.568194
84.1400	18.842916	84.108520
84.1500	18.842916	84.723165
84.1600	18.842916	85.452488
84.1700	18.842916	86.248706
84.1800	18.842916	86.990048
84.1900	18.842916	87.548611
84.2000	18.842916	87.875261
84.2100	18.842916	88.050238
84.2200	18.842916	88.262864
84.2300	18.842916	88.721627
84.2400	18.842916	89.537035
84.2500	18.842916	90.640646
84.2600	18.842916	91.791090
84.2700	18.842916	92.675607
84.2800	18.842916	93.064389
84.2900	18.842916	92.941853
84.3000	18.842916	92.543262
84.3100	18.842916	92.267515
84.3200	18.842916	92.498147
84.3300	18.842916	93.414131
84.3400	18.842916	94.883769
84.3500	18.842916	96.500372
84.3600	18.842916	97.752449
84.3700	18.842916	98.254969
84.3800	18.842916	97.934779
84.3900	18.842916	97.080246
84.4000	18.842916	96.226227
84.4100	18.842916	95.922271
84.4200	18.842916	96.487979
84.4300	18.842916	97.867475
84.4400	18.842916	99.650478
84.4500	18.842916	101.251164
84.4600	18.842916	102.163759
84.4700	18.842916	102.179458
84.4800	18.842916	101.468534
84.4900	18.842916	100.494545
84.5000	18.842916	99.804227
84.5100	18.842916	99.791009
84.5200	18.842916	100.537824
84.5300	18.842916	101.804098
84.5400	18.842916	103.153545
84.5500	18.842916	104.156446
84.5600	18.842916	104.571173
84.5700	18.842916	104.426251
84.5800	18.842916	103.975553
84.5900	18.842916	103.559186
84.6000	18.842916	103.442708
84.6100	18.842916	103.710306
84.6200	18.842916	104.255066
84.6300	18.842916	104.859684
84.6400	18.842916	105.318862
84.6500	18.842916	105.539723
84.6600	18.842916	105.573464
84.6700	18.842916	105.569512
84.6800	18.842916	105.682414
84.6900	18.842916	105.982684
84.7000	18.842916	106.417124
84.7100	18.842916	106.836607
84.7200	18.842916	107.074776
84.7300	18.842916	107.036845
84.7400	18.842916	106.754384
84.7500	18.842916	106.379794
84.7600	18.842916	106.123284
84.7700	18.842916	106.161409
84.7800	18.842916	106.557968
84.7900	18.842916	107.231313
84.8000	18.842916	107.981273
84.8100	18.842916	108.564028
84.8200	18.842916	108.784707
84.8300	18.842916	108.572090
84.8400	18.842916	108.008001
84.8500	18.842916	107.301444
84.8600	18.842916	106.717262
84.8700	18.842916	106.484256
84.8800	18.842916	106.714183
84.8900	18.842916	107.359300
84.9000	18.842916	108.223863
84.9100	18.842916	109.027499
84.9200	18.842916	109.500828
84.9300	18.842916	109.481408
84.9400	18.842916	108.975762
84.9500	18.842916	108.162930
84.9600	18.842916	107.334802
84.9700	18.842916	106.792119
84.9800	18.842916	106.733554
84.9900	18.842916	107.180512
85.0000	18.842916	107.968408
85.0100	18.842916	108.809803
85.0200	18.842916	109.405481
85.0300	18.842916	109.558947
85.0400	18.842916	109.247833
85.0500	18.842916	108.623877
